<svg width="34" height="34" viewBox="0 0 34 34" fill="none" xmlns="http://www.w3.org/2000/svg">
<path id="Vector" d="M20.3941 1.55078e-06C23.5049 -0.00148363 26.5222 1.06385 28.9428 3.01831C31.3633 4.97278 33.0408 7.69823 33.6954 10.7401C34.3501 13.782 33.9423 16.9565 32.5401 19.734C31.138 22.5116 28.8261 24.7243 25.9902 26.0033C25.0838 28.0078 23.7047 29.7625 21.9714 31.1169C20.238 32.4713 18.2021 33.3849 16.0382 33.7795C13.8744 34.174 11.6471 34.0377 9.54747 33.3822C7.44783 32.7267 5.53848 31.5715 3.98318 30.0159C2.42787 28.4602 1.27302 26.5504 0.617668 24.4502C-0.0376846 22.3501 -0.17398 20.1223 0.22047 17.9579C0.61492 15.7935 1.52834 13.7571 2.88241 12.0233C4.23647 10.2896 5.99075 8.91018 7.99481 8.00349C9.07229 5.61734 10.8153 3.59293 13.0148 2.17325C15.2142 0.753572 17.7765 -0.00103698 20.3941 1.55078e-06ZM13.5944 10.202C10.8893 10.202 8.29498 11.2769 6.38219 13.1901C4.46941 15.1034 3.39481 17.6983 3.39481 20.404C3.39481 23.1098 4.46941 25.7047 6.38219 27.618C8.29498 29.5312 10.8893 30.6061 13.5944 30.6061C16.2995 30.6061 18.8938 29.5312 20.8066 27.618C22.7193 25.7047 23.7939 23.1098 23.7939 20.404C23.7939 17.6983 22.7193 15.1034 20.8066 13.1901C18.8938 11.2769 16.2995 10.202 13.5944 10.202ZM15.2943 11.9024V13.6027H18.6942V17.0034H11.8944C11.682 17.003 11.4772 17.0821 11.3202 17.2253C11.1633 17.3684 11.0656 17.5651 11.0464 17.7767C11.0272 17.9883 11.0879 18.1994 11.2165 18.3685C11.3452 18.5375 11.5325 18.6523 11.7415 18.6901L11.8944 18.7037H15.2943C16.4214 18.7037 17.5024 19.1516 18.2994 19.9488C19.0964 20.7459 19.5441 21.8272 19.5441 22.9546C19.5441 24.0819 19.0964 25.1632 18.2994 25.9604C17.5024 26.7575 16.4214 27.2054 15.2943 27.2054V28.9057H11.8944V27.2054H8.49459V23.8047H15.2943C15.5067 23.8051 15.7115 23.7259 15.8685 23.5828C16.0255 23.4397 16.1232 23.243 16.1424 23.0314C16.1615 22.8198 16.1008 22.6087 15.9722 22.4396C15.8436 22.2706 15.6563 22.1558 15.4473 22.118L15.2943 22.1044H11.8944C10.7673 22.1044 9.68637 21.6565 8.88937 20.8593C8.09238 20.0622 7.64463 18.9809 7.64463 17.8535C7.64463 16.7261 8.09238 15.6449 8.88937 14.8477C9.68637 14.0506 10.7673 13.6027 11.8944 13.6027V11.9024H15.2943ZM20.3941 3.40068C18.9537 3.40037 17.5295 3.70523 16.2154 4.29518C14.9013 4.88513 13.7271 5.7468 12.7699 6.82345C14.6913 6.70679 16.6155 6.99943 18.4154 7.68203C20.2152 8.36464 21.8497 9.42164 23.2108 10.7832C24.5718 12.1447 25.6284 13.7797 26.3106 15.5801C26.9928 17.3805 27.2852 19.3052 27.1683 21.227C28.7139 19.8525 29.8052 18.0405 30.2975 16.0313C30.7899 14.0221 30.6599 11.9107 29.9249 9.97711C29.19 8.04349 27.8847 6.37905 26.1822 5.20453C24.4797 4.03001 22.4605 3.40092 20.3924 3.40068" fill="#263937"/>
</svg>
